<mxfile host="app.diagrams.net" modified="2020-06-18T12:37:20.495Z" agent="5.0 (Macintosh; Intel Mac OS X 10_15_5) AppleWebKit/537.36 (KHTML, like Gecko) Chrome/83.0.4103.97 Safari/537.36" etag="Eyg8OlTsNPj2dGOVFm7u" version="13.2.4" type="github">
  <diagram id="rPk13x838Z386rAraOWN" name="Page-1">
    <mxGraphModel dx="946" dy="472" grid="1" gridSize="10" guides="1" tooltips="1" connect="1" arrows="1" fold="1" page="1" pageScale="1" pageWidth="827" pageHeight="1169" math="0" shadow="0">
      <root>
        <mxCell id="0" />
        <mxCell id="1" parent="0" />
        <mxCell id="JB_AflfCaHxMsUsFs5H9-1" value="PIZZAIOLO" style="shape=umlActor;verticalLabelPosition=bottom;labelBackgroundColor=#ffffff;verticalAlign=top;html=1;outlineConnect=0;fillColor=#ffe6cc;strokeColor=#d79b00;" parent="1" vertex="1">
          <mxGeometry x="40" y="170" width="30" height="60" as="geometry" />
        </mxCell>
        <mxCell id="JB_AflfCaHxMsUsFs5H9-2" value="S&#39;authentifier" style="ellipse;whiteSpace=wrap;html=1;" parent="1" vertex="1">
          <mxGeometry x="240" y="50" width="240" height="40" as="geometry" />
        </mxCell>
        <mxCell id="JB_AflfCaHxMsUsFs5H9-3" value="Consulter les commandes en cours" style="ellipse;whiteSpace=wrap;html=1;" parent="1" vertex="1">
          <mxGeometry x="240" y="120" width="240" height="40" as="geometry" />
        </mxCell>
        <mxCell id="JB_AflfCaHxMsUsFs5H9-4" value="Consulter les modifications de recette" style="ellipse;whiteSpace=wrap;html=1;" parent="1" vertex="1">
          <mxGeometry x="240" y="190" width="240" height="40" as="geometry" />
        </mxCell>
        <mxCell id="JB_AflfCaHxMsUsFs5H9-5" value="Consulter les recettes" style="ellipse;whiteSpace=wrap;html=1;" parent="1" vertex="1">
          <mxGeometry x="240" y="260" width="240" height="40" as="geometry" />
        </mxCell>
        <mxCell id="JB_AflfCaHxMsUsFs5H9-6" value="Consulter et Ã©diter les stocks" style="ellipse;whiteSpace=wrap;html=1;" parent="1" vertex="1">
          <mxGeometry x="240" y="330" width="240" height="40" as="geometry" />
        </mxCell>
        <mxCell id="-wHJnrs8Q-9VzOLrZA13-1" value="" style="endArrow=none;html=1;entryX=0;entryY=0.5;entryDx=0;entryDy=0;" edge="1" parent="1" target="JB_AflfCaHxMsUsFs5H9-2">
          <mxGeometry width="50" height="50" relative="1" as="geometry">
            <mxPoint x="80" y="180" as="sourcePoint" />
            <mxPoint x="440" y="220" as="targetPoint" />
            <Array as="points">
              <mxPoint x="200" y="70" />
            </Array>
          </mxGeometry>
        </mxCell>
        <mxCell id="-wHJnrs8Q-9VzOLrZA13-2" value="" style="endArrow=none;html=1;entryX=0;entryY=0.5;entryDx=0;entryDy=0;" edge="1" parent="1" target="JB_AflfCaHxMsUsFs5H9-3">
          <mxGeometry width="50" height="50" relative="1" as="geometry">
            <mxPoint x="80" y="190" as="sourcePoint" />
            <mxPoint x="440" y="220" as="targetPoint" />
            <Array as="points">
              <mxPoint x="200" y="140" />
            </Array>
          </mxGeometry>
        </mxCell>
        <mxCell id="-wHJnrs8Q-9VzOLrZA13-3" value="" style="endArrow=none;html=1;entryX=0;entryY=0.5;entryDx=0;entryDy=0;" edge="1" parent="1" target="JB_AflfCaHxMsUsFs5H9-4">
          <mxGeometry width="50" height="50" relative="1" as="geometry">
            <mxPoint x="80" y="200" as="sourcePoint" />
            <mxPoint x="440" y="220" as="targetPoint" />
            <Array as="points">
              <mxPoint x="200" y="210" />
            </Array>
          </mxGeometry>
        </mxCell>
        <mxCell id="-wHJnrs8Q-9VzOLrZA13-4" value="" style="endArrow=none;html=1;exitX=0;exitY=0.5;exitDx=0;exitDy=0;" edge="1" parent="1" source="JB_AflfCaHxMsUsFs5H9-5">
          <mxGeometry width="50" height="50" relative="1" as="geometry">
            <mxPoint x="390" y="270" as="sourcePoint" />
            <mxPoint x="80" y="210" as="targetPoint" />
            <Array as="points">
              <mxPoint x="200" y="280" />
            </Array>
          </mxGeometry>
        </mxCell>
        <mxCell id="-wHJnrs8Q-9VzOLrZA13-5" value="" style="endArrow=none;html=1;exitX=0;exitY=0.5;exitDx=0;exitDy=0;" edge="1" parent="1" source="JB_AflfCaHxMsUsFs5H9-6">
          <mxGeometry width="50" height="50" relative="1" as="geometry">
            <mxPoint x="390" y="270" as="sourcePoint" />
            <mxPoint x="80" y="220" as="targetPoint" />
            <Array as="points">
              <mxPoint x="200" y="350" />
            </Array>
          </mxGeometry>
        </mxCell>
      </root>
    </mxGraphModel>
  </diagram>
</mxfile>
